<svg xmlns="http://www.w3.org/2000/svg" viewBox="0 0 4000 4000"><path d="M3279 2964a963 963 0 0 1-290 8c-24-2-162-11-162-49v-40l72-72 401 2 74 70v40c-3 22-52 32-68 35l-27 6Z" fill="#d3d3d3"/><path d="M2899 2811c26 59 28 102 202 103 175 0 173-43 199-101l-401-2Z" fill="#969696" opacity=".41"/><path d="M2069 3879v-670h-164l-1 670h165z" fill="#9f9f9f"/><path d="M2064 3209h5v670h-5z" fill="#686868"/><path d="M2025 3209v670h16v-670h-16Zm-27 0v670h16v-670h-16z" fill="#494949"/><path d="M1972 3209v670h34v-670h-34z" fill="#333"/><path d="M1938 3209v670h34v-670h-34z" fill="#838383"/><path d="m1903 3209 1 670h34v-670h-35z" fill="#484848"/><path d="M2014 3209v670h11v-670h-11Z" fill="#565656"/><path d="M2041 3209h23v670h-23z" fill="#8c8c8c"/><path d="m3168 3118-1006-95 9-63 998 93c18 1 31 16 30 34-1 17-14 30-31 31Z" fill="#999"/><path d="m3168 3119-1008-95 10-66 1 1 998 92a34 34 0 0 1-1 68Zm-1005-97 1005 95a32 32 0 0 0 1-63l-997-93-9 61Z" fill="#fff"/><path d="m3165 3137-1019-109 22-49 998 93c18 1 31 16 30 34-1 17-14 30-31 31Z" fill="#878787"/><path d="m3165 3138-1008-95 10-66 1 1 998 92a34 34 0 0 1-1 68Zm-1005-97 1005 95a32 32 0 0 0 1-63l-997-93-9 61Z" fill="#fff"/><path d="m3161 3157-1008-95 10-66h1l999 93a34 34 0 0 1-2 68Zm-1014-146 1014 143a32 32 0 0 0 1-63l-997-93-18 13Z" fill="#fff"/><path d="m3147 3183-1022-62 6-113 1022 101a37 37 0 0 1-6 74Z" fill="#7a7a7a" stroke="#fff" stroke-miterlimit="10" stroke-width="1.28"/><path d="M1995 3214h-113v-332h219l-14 21 59 28v132c0 84-68 151-151 151Z" fill="#787878"/><path d="M1948 3187c0 18 6 36-6 44-13 8-38 12-38 12h-12c-21-9-49-46-40-74 8-20 33-22 49-22 37 0 47 9 47 40Z" fill="#7a7a7a"/><path d="M1948 3187c0 18 11 33-2 41-17 10-34 20-52 12-20-10-47-46-38-73 8-21 33-23 49-23 38 0 43 12 43 43Z" fill="#f4f4f4"/><path d="M1882 2885h10v324h-10z" fill="#4f4f4f"/><path d="M1954 3037c0 15 0 28-12 35-17 9-37 11-55 4-21-8-44-33-35-56 8-18 33-20 49-20 37 0 53 11 53 37Z" fill="#7a7a7a"/><path d="M1951 3036c0 15-5 28-5 34 0 19-37 11-55 4-20-8-44-33-35-57 8-18 33-19 49-19 38 0 46 12 46 38Z" fill="#f4f4f4"/><path d="M1892 2885h27v359h-27z" fill="#7d7d7d"/><path d="M1954 3243h-31l-1-358h32v358z" fill="#858585"/><path d="M2146 3087h-192v-18l33-10c12-4 24-5 36-3l123 13v18Z" fill="#999"/><path d="M2146 3096h-192v-9h192v9z" fill="#333"/><path d="m2191 2967-32 39-135-124 37-40 130 125z" fill="#f4f4f4"/><path d="m2082 2873 109 94-10 12-102-91 3-15z" fill="#a6a6a6"/><path d="m2066 2847 131 114-12 13-126-120 7-7z" fill="#a6a6a6"/><path d="m2159 3006-116-129h-51v29h47l116 105 4-5z" fill="#f4f4f4"/><path d="m2179 2981-24 29-116-107 37-13 103 91z" fill="#a6a6a6"/><path d="M2081 2890c-4 7-16 16-29 16-6 0-24-3-31-6-6-1 0-7-6-10-27-16-41-44-33-58 8-13 36-18 63-2s44 46 36 60Z" fill="#f4f4f4"/><path d="M2075 1174c0 8-4 14-9 14s-15-6-15-14 10-15 15-15 9 6 9 15Z" fill="#484848"/><path d="M2068 1168v9l2-4-2-5Z" fill="#fff"/><path d="M1903 1077h165v1805h-165z" fill="#9f9f9f"/><path d="m2068 2888-5 2V1077h5v1811z" fill="#686868"/><path d="m2040 2891-16 1V1077h16v1814zm-27 2-16 1-1-1817h17v1816z" fill="#494949"/><path d="m2005 2893-34 3V1077h34v1816z" fill="#333"/><path d="M1971 2884h-34V1077h34v1807z" fill="#838383"/><path d="M1937 2884h-34l-1-1807h35v1807z" fill="#484848"/><path d="m2024 2892-11 1V1077h11v1815z" fill="#565656"/><path d="m2063 2890-23 1V1077h23v1813z" fill="#8c8c8c"/><path d="M1849 326c0 113-48 207-107 207s-106-94-106-207 53-203 112-203 101 89 101 203Z" fill="#a3a3a3"/><ellipse fill="#e1e1e1" cx="1748.1" cy="326.8" rx="106.2" ry="205.5"/><path d="m1829 413-182-26-1-6-1-4 188 24-4 12z" fill="#fff"/><path d="m1828 419-180-22-1-4v-6l183 23-2 9z" fill="#949494"/><path d="m1832 452-176-21v-2l-1-2-1-4-1-4 184 21-2 5-1 3-2 4z" fill="#fff"/><path d="m1829 459-170-20-1-3-1-4-1-3 178 20-1 2-2 4-2 4z" fill="#949494"/><path d="m1826 467-164-19-3-9 171 18-1 3-1 2-2 5zm0-41-176-21-2-8 180 22-2 7z" fill="#949494" opacity=".25"/><path d="M1971 2888c0 15-14 27-27 34-17 9-36 7-54 0-20-8-45-29-36-52 8-18 33-20 49-20 37 0 68 12 68 38Z" fill="#4f4f4f"/><path d="M1918 2944s-8-14-23-19c-21-8-46-34-36-58 7-18 32-19 48-19 18 0 36 3 53 8 13 4 26 14 30 28l1 6-73 54Z" fill="#f4f4f4"/><path d="M1923 2931h-5l70-59h4l-69 59z" fill="#333"/><path d="m2021 2901-29-7-1-4-68 41v13h31l67-43z" fill="#f4f4f4"/><path d="m1400 879 1 16h30v19l-35 16v15l35 26v9l-40 1v27l145 3 53 1 14 2 127 55 20 2 152 22h120l46-1 154-28 192-69 93-2 234-2v-26l-16-1-1-62h20v-21h-20v-42l24-3v-38l-332 34-160 72-59 26h-460l-138-58-199 7z" fill="#a9a9a9"/><ellipse fill="#c2c2c2" cx="2546.3" cy="383.4" rx="149.3" ry="135.1"/><path d="M2568 481c-82 0-149-60-149-135 0-15 3-30 8-43-19 22-30 50-30 81 0 74 67 135 149 135 66 0 121-38 141-92-27 33-70 54-119 54Z" fill="#a5a5a5"/><path d="M1683 690h-380l8-260 157-12 205 12 10 260z" fill="#a8a8a8"/><path d="M1630 430h36v263h-36z" fill="#e4e4e4" opacity=".54"/><path d="M1612 430h18v263h-18z" fill="#c5c5c5"/><path d="m1683 690-17 3V430l7 1 10 259z" fill="#ddd"/><path d="M1319 430h12v263h-12zm23 0h7v263h-7zm-28 263-11-3 8-260h3v263z" fill="#dadada"/><path d="M1589 430h16v263h-16z" fill="#c1c1c1"/><path d="M1574 430h15v263h-15z" fill="#b9b9b9"/><path d="M1560 430h14v263h-14z" fill="#c7c7c7"/><path d="M1532 430h28v263h-28z" fill="#b7b7b7"/><path d="M1507 430h25v263h-25z" fill="#a9a9a9"/><path d="M1441 430h60v263h-60z" fill="#9c9c9c" opacity=".3"/><path d="M1387 430h10v263h-10z" fill="#888"/><path d="M1683 690c0 8-84 25-190 25s-190-16-190-25c0 0 84-7 190-7s190 7 190 7Z" fill="#414141"/><path d="M1429 691h120v37h-120z" fill="#1e1e1e"/><path d="M1416 728h145v133h-145z" fill="#8e8e8e"/><path d="M1558 803h9v31h-9z" fill="#797979"/><ellipse fill="#515151" cx="1426.2" cy="813.8" rx="14.1" ry="21.8"/><path d="M1424 820c5 0 10 2 12 4l2-9c0-11-6-20-14-20s-14 9-14 20l1 9c3-2 7-4 13-4Z" fill="#a3a3a3"/><ellipse fill="#848484" cx="1416" cy="816" rx="8.6" ry="12.3"/><ellipse fill="#515151" cx="1414.4" cy="816" rx="8.6" ry="12.3"/><ellipse fill="#515151" cx="1564.8" cy="818.3" rx="3.5" ry="12.3"/><path d="m3058 321-328 17v-34l328-17v34z" fill="#a5a4a4"/><path d="m3058 314-328 17v-34l328-17v34z" fill="#cacaca"/><path d="m2674 342-326-35 5-34 327 35-6 34z" fill="#7f7f7f"/><path d="m2674 337-326-35 5-33 327 35-6 33z" fill="#a8a8a8"/><path d="M2568 631h170v180h-170z" fill="#8e8e8e"/><ellipse fill="#515151" cx="2580.5" cy="747" rx="16.4" ry="29.6"/><path d="M2578 755c6 0 12 3 14 6 2-3 2-8 2-12 0-15-7-28-16-28s-17 13-17 28l2 12c3-3 8-6 15-6Z" fill="#a3a3a3"/><ellipse fill="#848484" cx="2568.6" cy="749.9" rx="10" ry="16.6"/><ellipse fill="#515151" cx="2566.8" cy="749.9" rx="10" ry="16.6"/><path d="M2806 313c-28-52-89-88-159-88s-130 36-159 88h318Z" fill="#e2e2e2"/><path d="M2795 313c-31-43-86-71-148-71s-116 28-148 71h296Z" fill="#dadada"/><path d="M2528 320h238v55h-238z" fill="#a3a3a3"/><path d="M2539 317h217v67h-217z" fill="#4a4a4a"/><path d="M2806 313c0 2-9 12-26 15-29 4-77 6-133 6s-102-2-131-6c-17-3-28-13-28-15h318Z" fill="#272727"/><path d="M2484 385h327v257h-327z" fill="#979797"/><path d="M2484 385h13v257h-13zm314 0h13v257h-13zm-19 0h12v257h-12z" fill="#e2e2e2"/><path d="M2781 385h13v257h-13z" fill="#e8e3e3"/><path d="M2785 385h13v257h-13z" fill="#c1c1c1"/><path d="M2531 385h7v256h-7z" fill="#ddd"/><path d="M2519 385h7v256h-7z" fill="#8d8d8d"/><path d="M2497 385h7v256h-7z" fill="#c6c6c6"/><path d="M2500 385h7v256h-7z" fill="#a7a7a7"/><path d="M2484 383h327v8h-327z" fill="#e8e3e3" opacity=".28"/><path d="M2569 642h169v16h-169z" fill="#636363"/><path d="m2748 798-337 7-84 43-127 49h-50l-344 2-156-52h-89v14l42 1 146 55h49l354-3 18-1 29 2 20-6 111-53 82-43 336-7v-8z" fill="#737373"/><path d="m2748 800-337 8-84 42-127 49h-50l-344 2-156-52v1-1l-89 1v11l42 3 146 55h49l354-3h17l30 2 20-7 111-53 82-42 336-7v-9z" fill="#d6d6d6"/><path d="m2748 809-333 7-215 97h-463l-132-53-205 1v18h200l137 51h467l215-98 329-5v-18z" fill="#c9c5c5"/><path d="m2748 806-333 7-215 97h-463l-132-53-205 1v18h200l136 51h464l215-97 333-7v-17z" fill="#737373"/><path d="m2434 886-6 2-116 56-188 58-334-3-189-66h-205v12h201l188 68 4 1h335l193-59 117-56h310v-15h-21l-289 2z" fill="#c9c5c5"/><path d="M1518 932h-93l50-51 43 51zm146 24-56-20-63-4 53-50 66 74zm-82 40-96-5 43-50 53 55zm303 81-128-26 58-35 70 61zm-85-76-100-31 47-38 53 69zm-74 45-115-46 51-32 64 78zm230-47h-123l54-65 69 65zm-531-54 89-1-44 50-45-49zm337-12h109l-56 68-53-68zm72 83 81-1-13 58-68-57zm-345-135h95l-53 52-42-52zm128 7 118 41-47 36-71-77zm68 91 113 34-56 37-57-71zm-140-34h52l51 21-50 30-53-51zm357-13 50-1-13 37-37-36zm73 0h50l-48 64-2-64zm-44 82-6 59 106 2-55-61h-45zm108 58 68-58h-117l49 58zm-48-73 49-65 69 65h-118zm64-67 69 70 67-70h-136zm69 82-65 57 136-24-71-33zm82-84 72 25-131 37 59-62zm-66 79 69 30 67-71-136 41zm350-110 79 76 58-79-137 3zm-189 59-74 78 148-55-74-23zm-79-36 73 25 73-91-146 66zm163-72 69 36-26 2-111 53 68-91zm-62 105 69 21 69-76-27-1-111 56zm87 17 64-72 73 70-137 2zm-16-128 22-12h122l-57 52h-12l-75-40zm163-13 64 54-123-1 59-53zm27 141 56-73h80v70l-136 3zm-11-142 71 61 76 1v-65l-147 3z" fill="#1c1c1c" stroke="#c6c6c6" stroke-miterlimit="10" stroke-width="5.11"/><path d="m1994 930-1 163h-70l-5-56 36-107h40z" fill="#939393"/><path d="M1970 930h-16l-46 95-2 6-1 62h18l-1-60 48-103z" fill="#515151"/><path d="M1966 930h-17l-46 96-1 5v62h18l-1-61 47-102z" fill="#737373"/><path d="m1954 930-47 96h9l46-96h-8zm-47 105h8v58h-8z" fill="#ddd" opacity=".14"/><path d="M1925 1007h-8l37-77h8l-37 77z" fill="#ddd"/><path d="M1989 930h4v163h-4z" fill="#777"/><path d="m1391 990 89 3 108 5 17 2 129 52 16 1 152 27v7l-152-26-19-2-127-54-16-2-197-4v-9zm602 90 45-3 180-35 174-66 15-5 334-2v10l-223-1-107 2-191 70-180 35-47 4v-9z" fill="#c9c5c5"/><path d="M2123 2266h-220l-52-96v-253l287 5 9 319c1 14-10 25-24 25Z" fill="#828282"/><path d="m2148 1952-304-6v-22c0-14 11-25 25-25h232c26 0 47 21 47 47v6Z" fill="#8e8e8e"/><path d="M2148 1952h-318l4-23c0-4 2-8 4-12 7-11 19-12 31-12h232c26 0 47 21 47 47Z" fill="#e8e8e8"/><path d="m1865 1946-90 109-7 26 97-8 105-121-105-6z" fill="#7b7b7b"/><path d="m1815 2063-5-6 112-125 7 7-114 124zm-40-8-5-5 117-130 6 5-118 130zm90 25-3-7 115-130 7 7-119 130z" fill="#e8e8e8"/><path d="m1861 2069-46-6-35 4-286 26v13l70-7 293-26 4-4z" fill="#7b7b7b"/><path d="M1807 2055h-32l-12 2-269 26v13l70-6 226-32 17-3z" fill="#7b7b7b"/><path d="m1815 2055-321 38v6l321-36v-8zm-42-6-279 30v7l281-31-2-6z" fill="#e8e8e8"/><path d="m1773 2044-279 31v4l277-30 2-5z" fill="#7b7b7b"/><path d="m1865 2073-371 33v7l371-33v-7z" fill="#e8e8e8"/><path d="m1766 2046 5 3 88-97h-15l-78 94z" fill="#7b7b7b"/><path d="m1870 2173-376 31v-91l371-33 5 93z" fill="#828282"/><path d="m1867 2117-373 38v9l373-37v-10z" fill="#e8e8e8"/><path d="M1984 2266h-81l-97-88 64-5 114 93z" fill="#1f1f1f"/><path d="M2124 2266h-33v-314h57v289c0 14-11 25-24 25Z" fill="#a1a1a1"/><path d="M2113 1952h7v314h-7z" fill="#595959"/><path d="M2024 1952h7v314h-7z" fill="#595959" opacity=".11"/><path d="m1867 2135 164 131 60-131h-224z" fill="#595959" opacity=".31"/><path d="M2004 1952h20v314h-20z" fill="#e8e8e8" opacity=".13"/><path d="M2032 1952h59v314h-59z" fill="#0a0a0a" opacity=".16"/><path d="M2082 2011c0 17-9 32-27 32s-32-15-32-32 15-32 32-32 27 14 27 32Z" fill="#3d3d3d"/><path d="M2055 2038c-17 0-30-13-32-29v2c0 17 15 32 32 32s27-15 27-32l-1-2c0 16-9 29-26 29Z"/><path d="M2075 2011c0-13-6-25-15-31a31 31 0 0 0-18 2 32 32 0 0 1 0 58 32 32 0 0 0 19 2c9-7 14-18 14-31Z" fill="#828282"/><rect fill="#727272" width="51.1" height="23.1" x="2004" y="2000.4" rx="10.3" ry="10.3"/><rect fill="#afafaf" width="51.1" height="23.1" x="2004" y="1998.3" rx="10.3" ry="10.3"/><path d="M2082 2200c0 18-9 32-27 32s-32-14-32-32 15-31 32-31 27 14 27 31Z" fill="#262626"/><path d="M2055 2227c-17 0-30-13-32-29v2c0 18 15 32 32 32s27-14 27-32l-1-2c0 16-9 29-26 29Z"/><path d="M2075 2201c0-14-6-26-15-32a31 31 0 0 0-18 2 32 32 0 0 1 0 58 32 32 0 0 0 19 2c9-6 14-18 14-30Z" fill="#5b5b5b"/><rect fill="#5b5a5a" width="51.1" height="23.1" x="2004" y="2189.7" rx="10.3" ry="10.3"/><rect fill="#939393" width="51.1" height="23.1" x="2004" y="2187.7" rx="10.3" ry="10.3"/><path d="M1673 431c-14-70-88-134-179-134s-170 56-183 126l362 8Z" fill="#dadada"/><path d="m1382 331 9-8c-42 23-72 59-80 100l330 8-12-26-228-17c-29-3-41-38-19-57Z" fill="#bababa" opacity=".43"/><path d="m1632 430 41 1c-14-70-88-134-179-134l-21 1c81 9 146 68 159 132Z" fill="#efefef"/><path d="M1673 431c-69-13-149-17-218-16-46 0-97-1-144 8v12c47-9 98-8 144-8 69-1 149 3 218 16v-12Z" fill="#2b2b2b"/><path d="M1401 347s-30-2-50-5c-25-4-43-9-69-11-43-5-76-5-98-2-23 3-33 8-37 15-9 15 2 54 69 60 55 4 145 5 193 0l-8-57Z" fill="#dcdcdc"/><path d="M1353 375a568 568 0 0 1-170-26l-14-6-6-4-5-4-5 3-7 6c-8 15 3 54 70 60 36 3 84 4 128 3l9-32Z" fill="#bcbcbc"/><path d="m1153 338-3 2-3 4c-9 15 2 54 69 60 36 3 84 4 128 3l5-15c-16 0-31-2-46-4a860 860 0 0 1-98-17l-30-9c-9-4-20-14-22-24Z" fill="#7a7a7a" opacity=".35"/><path d="m1385 411-34-4 5-35-5-30 12-3 23-5c5-1 11-2 16-1 3 0 9 2 10 5 2 3 7 6 7 14l1 31c0 9 1 21-9 27-7 4-17 2-26 1Z" fill="#dcdcdc"/><path d="M1413 336c-3-2-6-3-10-3h-6l2 2c6 12 6 27-1 38l23 2 2-14c0-6 1-11-2-16-2-4-4-7-8-9Z" fill="#a8a8a8" opacity=".33"/><path d="M1923 3243h-5v-312h5v312z" fill="#333"/><path d="m1937 2885-34-7v-32h34v39z" fill="#484848"/><path d="m1971 2875-34 10v-44h34v34z" fill="#838383"/><path d="M1948 2944h6v299h-6zm63-41 2 3h26v-3h-28z" fill="#b2b2b2"/><path d="M1954 2944h-6l63-41 2 3-59 38zm85-38v-3l116 107v1l-116-105z" fill="#b2b2b2"/><path d="M2028 3214h-74v-118h192c1 64-54 118-118 118Z" fill="#636363"/><path d="M1954 3072v-6h192v6z" fill="#b2b2b2"/><path d="M2005 3214h-51v-270l51-33v303z" fill="#333" opacity=".34"/><path d="M2007 3214h-2v-303l1-1 1 304z" fill="#828282"/><path d="M2001 2980h2c-3-12-11-20-25-20-18 0-24 14-24 32s6 31 24 31 26-15 26-32l-1-11h-2Z" fill="#3d3d3d"/><path d="m1987 3017-1-2c-4-16-4-33-1-49l2-5-9-1-6 1c-8 6-14 17-14 30 1 14 7 26 16 32h4c5 0 9-1 13-3l-4-3Z" fill="#828282"/><path d="m1987 3021-14 1v-19l15 15-1 3z"/><path d="M1983 2991h-25l1 10c2 9 7 16 15 22h5c4 0 9-1 13-4-6-11-9-23-9-28Z"/><path d="M1978 2960c-18 0-24 14-24 32v2c0-16 7-29 24-29 12 0 19 6 23 15h2c-3-12-11-20-25-20Z"/><path d="M1998 2982h29c5 0 10 5 10 11v3c0 6-5 11-10 11h-29c-5 0-9-5-9-11v-3c0-6 4-11 9-11Z" fill="#afafaf"/><path d="M2036 2991c0-5-4-9-9-9h-29c-4 0-8 4-9 9h47Z" fill="#727272"/><path d="M1989 2998c1 5 5 9 9 9h29c5 0 9-4 9-9h-47Z"/><path d="M2002 3139h2c-3-12-11-20-25-20-17 0-24 14-24 32s7 31 24 31 26-15 26-32l-1-11h-2Z" fill="#3d3d3d"/><path d="m1988 3176-1-2c-4-16-4-33 0-49l1-5-8-1-7 1c-8 6-14 17-14 30 1 14 7 26 16 32h5c4 0 9-1 12-3l-4-3Z" fill="#828282"/><path d="m1988 3180-14 1v-20l15 16-1 3z"/><path d="M1984 3150h-25l2 10c2 9 7 16 14 22h5c5 0 9-1 13-4-6-11-9-24-9-28Z"/><path d="M1979 3119c-17 0-24 14-24 32v2c1-16 7-30 24-30 12 0 20 7 24 16h1c-3-12-11-20-25-20Z"/><path d="M2000 3141h28c6 0 10 5 10 11v3c0 6-4 11-10 11h-28c-6 0-10-5-10-11v-3c0-6 4-11 10-11Z" fill="#afafaf"/><path d="M2038 3150c-1-5-5-9-10-9h-28c-5 0-9 4-10 9h48Z" fill="#727272"/><path d="M1990 3157c1 5 5 9 10 9h28c5 0 9-4 10-9h-48Z"/><path d="M2091 2127h-224v-14c-1-7 4-13 11-13l137-11c6-1 12 0 18 1l58 11v26Z" fill="#d6d6d6"/><path d="m2091 2140-61 7-12 1-143-7c-4 0-8-4-8-8v-6h224v13Z" fill="#595959"/><ellipse fill="#8c8c8c" cx="3212.9" cy="302.9" rx="163.7" ry="169.3"/><ellipse fill="#999" cx="3268.7" cy="267.1" rx="90.3" ry="85.2" transform="rotate(-70 3269 267)"/><path d="M3353 246c6 35-42 65-83 65s-92-33-83-68 44-66 85-66a82 82 0 0 1 81 69Z" fill="#5e5e5e" opacity=".14"/><ellipse fill="#aaa" cx="2226.8" cy="233.9" rx="163.7" ry="169.3"/><ellipse fill="#999" cx="2171.2" cy="233.9" rx="90.3" ry="85.2" transform="rotate(-70 2171 234)"/><path d="M2255 212c7 36-42 66-82 66s-93-33-84-68c10-35 45-66 85-66a82 82 0 0 1 81 68Z" fill="#5e5e5e" opacity=".14"/><path d="m3186 3153-1040-66v-15l1040 69v12Z" fill="#b7b7b7" opacity=".3"/><path d="m2167 2996-2 2-106-93 5-2 103 93zm28-33-125-108-1-5 128 111-2 2z" fill="#f4f4f4"/><path d="m2208 3015-53-5 10-12 43 4v13z" fill="#878787"/><path d="M2146 3020h-4l4-17 9 8-9 9z" fill="#787878"/><path d="m3184 3131-1-2 8-10v8l-1 3v2l-1 1-1 2v1l-1 1v1l-1 1v-3l-2-5z" fill="#878787"/><path d="M3067 1859h17v27h-17zm0 148h17v27h-17zm0 147h17v25h-17zm0 144h17v13h-17zm0 135h17v17h-17zm0 139h15v20h-15z" fill="#7f7f7f"/><path d="M2877 2713h443v34h-443z" fill="#969696"/><path d="m3279 2831-74 11c-72 7-145 5-216-3-24-3-162-12-162-50v-40l72-71 401 1 74 70v40c-3 22-52 32-68 36l-27 6Z" fill="#d3d3d3"/><path d="M3374 2754c-3 21-52 31-68 35a827 827 0 0 1-101 17c-72 7-145 6-216-3-24-3-162-11-162-49v35c0 38 138 47 162 50a963 963 0 0 0 317-14c16-4 65-14 68-36v-40 5Z" fill="#3a3a3a"/><path d="M2899 2678c26 58 28 102 202 102 175 0 173-42 199-101l-401-1Z" fill="#969696" opacity=".41"/><path d="M2877 2613c29 59 32 115 224 116 193 0 190-55 219-114l-443-2Zm29 216c22 35 59 46 199 46 119 0 166-21 189-48l-44 9-47 6c-12 1-54 5-102 4-53 0-113-7-119-8l-44-4-32-5Z" fill="#969696" opacity=".41"/><path d="M2877 2577h443v34h-443z" fill="#969696"/><path d="m3279 2695-74 11c-72 7-145 6-216-3-24-3-162-11-162-49v-41l72-71 401 1 74 70v41c-3 21-52 31-68 35l-27 6Z" fill="#d3d3d3"/><path d="M3374 2618c-3 21-52 31-68 35a827 827 0 0 1-101 17c-72 8-145 6-216-3-24-3-162-11-162-49v36c0 38 138 46 162 49a963 963 0 0 0 317-14c16-4 65-14 68-35v-41 5Z" fill="#3a3a3a"/><path d="M2899 2542c26 58 28 102 202 102 175 0 173-42 199-101l-401-1Z" fill="#969696" opacity=".41"/><path d="M2876 2492c28 58 30 102 222 102 193 0 192-42 220-100l-442-2Z" fill="#969696" opacity=".41"/><path d="M2878 2436h443v35h-443z" fill="#969696"/><path d="M3280 2554c-24 5-49 8-73 11-72 7-145 6-217-3-24-3-162-11-162-49v-40l72-72 402 2 74 70v40c-3 21-53 31-69 35l-27 6Z" fill="#d3d3d3"/><path d="M3376 2477c-3 21-53 31-69 35a827 827 0 0 1-100 17c-72 8-145 6-217-3-24-3-162-11-162-49v36c0 38 138 46 162 49a963 963 0 0 0 317-14c16-4 66-14 69-35v-40 4Z" fill="#3a3a3a"/><path d="M2900 2401c26 58 28 102 202 102 175 0 173-42 200-100l-402-2Z" fill="#969696" opacity=".41"/><path d="M2881 2350c28 58 31 102 222 102 193 0 192-42 220-101l-442-1Z" fill="#969696" opacity=".41"/><path d="M2879 2296h443v35h-443z" fill="#969696"/><path d="M3281 2414a963 963 0 0 1-290 8c-24-2-162-11-162-49v-40l72-72 401 2 75 70v40c-3 22-53 32-69 35l-27 6Z" fill="#d3d3d3"/><path d="M3377 2337c-3 22-53 32-69 35a827 827 0 0 1-101 17c-72 8-144 6-216-2-24-3-162-12-162-50v36c0 38 138 47 162 49a963 963 0 0 0 317-14c16-3 66-13 69-35v-40 4Z" fill="#3a3a3a"/><path d="M2901 2261c26 59 28 102 202 102 175 1 173-42 199-100l-401-2Z" fill="#969696" opacity=".41"/><path d="M2880 2212c29 58 31 113 223 114 192 0 191-54 220-112l-443-2Z" fill="#969696" opacity=".41"/><path d="M2879 2163h443v34h-443z" fill="#969696"/><path d="M3281 2280a963 963 0 0 1-290 8c-24-2-162-11-162-49v-40l72-72 401 2 75 70v40c-3 22-53 32-69 36l-27 5Z" fill="#d3d3d3"/><path d="M3377 2204c-3 21-53 31-69 35a827 827 0 0 1-101 17c-72 7-144 6-216-3-24-3-162-11-162-49v35c0 38 138 47 162 50a963 963 0 0 0 317-14c16-4 66-14 69-36v-40 5Z" fill="#3a3a3a"/><path d="M2901 2127c26 59 28 103 202 103 175 0 173-42 199-101l-401-2Z" fill="#969696" opacity=".41"/><path d="M2879 2063c29 59 31 113 223 113 193 0 191-52 220-111l-443-2Z" fill="#969696" opacity=".41"/><path d="M2879 2019h443v35h-443z" fill="#969696"/><path d="M3281 2137c-24 5-49 8-74 11-72 8-144 6-216-3-24-3-162-11-162-49v-40l72-72 401 2 75 70v40c-3 21-53 31-69 35l-27 6Z" fill="#d3d3d3"/><path d="M3377 2060c-3 21-53 31-69 35a827 827 0 0 1-101 17c-72 8-144 6-216-3-24-3-162-11-162-49v36c0 38 138 46 162 49a963 963 0 0 0 317-14c16-4 66-14 69-35v-40 4Z" fill="#3a3a3a"/><path d="M2901 1984c26 58 28 102 202 102 175 0 173-42 199-100l-401-2Z" fill="#969696" opacity=".41"/><path d="M2879 1920c29 58 31 102 223 102 193 0 191-42 220-100l-443-2Z" fill="#969696" opacity=".41"/><path d="M2879 1870h443v35h-443z" fill="#969696"/><path d="M3281 1988a963 963 0 0 1-290 8c-24-2-162-11-162-49v-40l72-72 401 2 75 70v40c-3 22-53 32-69 35l-27 6Z" fill="#d3d3d3"/><path d="M3377 1911c-3 22-53 32-69 35a827 827 0 0 1-101 17c-72 8-144 6-216-2-24-3-162-12-162-50v36c0 38 138 47 162 49a963 963 0 0 0 317-14c16-3 66-13 69-35v-40 4Z" fill="#3a3a3a"/><path d="M2901 1835c26 59 28 102 202 102 175 1 173-42 199-100l-401-2Z" fill="#969696" opacity=".41"/><path d="M2879 1771c29 58 31 102 223 102 193 1 191-42 220-100l-443-2Z" fill="#969696" opacity=".41"/><path d="M3375 1801s-114 21-281 21-267-29-267-29c0-74 101-118 268-118s284 58 280 126Z" fill="#898989"/><path d="M3375 1809s-114 21-282 21-267-29-267-29c0-73 101-118 269-118s278 45 280 126Z" fill="#e9e9e9"/><path d="M3373 1812c-27-69-130-85-272-85s-254 10-268 85l260 18 280-18Z" fill="#dcdcdc"/><path d="m2827 1788-2 41a1382 1382 0 0 0 551 4l-1-37v-5a1367 1367 0 0 1-548-3Z" fill="#3a3a3a"/><path d="m3156 3042-125-1 1-9h124v10z" fill="#232323"/><path d="m1145 2261-522-101v-594l16-116 501 23 5 788z" fill="#727272"/><path d="m1494 2244-349 17-5-782 344-20 10 126v659z" fill="#959595"/><path d="m1140 1473-501-23 341-26 31-1 473 36-344 14Z" fill="#989898"/><path d="m623 2112 522 91 1 58-523-101v-48z" fill="#828181"/><path d="m1145 2203 349-13v54l-349 17v-58z" fill="#b7b7b7"/><path d="m1192 2202-47 2v-1l-44-8v-723l40 1 45-1 6 730z" fill="#bfb8b8" opacity=".15"/><path d="m1494 1616-9 1 1-32-10-126h8l10 126v31z" fill="#cecece"/><path d="M1494 2244h-9v-627l9-1v628z" fill="#727272" opacity=".38"/><path d="m623 1566 518 43v34l-518-46v-31z" fill="#a3a0a0" opacity=".57"/><path d="m1141 1609 343-23 10-1v31l-353 27v-34z" fill="#cecece" opacity=".57"/><path d="m1092 1605 9 1v-135h-9v134zm2 589 7 1v-555l-8-1 1 555zm-471-34 8 2 2-595 16-116-10-1-16 116v594z" fill="#4f4f4f" opacity=".22"/><path d="m1140 1479-501-29 69-5 432 28v6z" fill="#b2b2b2"/><path d="m1018 1428-303 23-57-2 330-26h20l6 1 4 4zm458 31-336 20v-6l305-17 31 3z" fill="#b2b2b2"/><path d="m1434 1461-437-31 7-7 480 36-50 2z" fill="#b2b2b2"/><path d="m1844 1956-14 12v-16l41-19-27 23z" fill="#e8e8e8"/><path d="m1122 2289-88 5-92-26v-46l203 39-23 28z" fill="#2a2a2a"/><path d="m1494 2244-372 45 23-28 247-12 102-5z" fill="#2a2a2a"/><path d="M1453 2236c0 3-2 6-5 7l-30 5c-39 7-74 13-114 7l-40-8c-3 0-6-3-6-7v-75c0-14 3-16 8-16l132-12c6-1 12-1 21 4l29 17c2 1 3 3 3 5l2 73Z" fill="#8a8a8a"/><path d="m1304 2255-41-8c-3 0-5-2-5-5v-85l47 18-1 80Z" fill="#5b5b5b"/><path d="m1450 2242-10 2-2-81 13-1 2 76c0 2-1 4-3 4Z" fill="#969696"/><path d="M1264 2149c-3 1-5 4-6 8 0 2 2 4 4 6l4 2 7 4 21 8a232 232 0 0 0 74 10c24 0 72-7 83-13v-14c0-2-19-13-33-20-8-5-17-6-26-5l-128 14Z" fill="#c7c7c7"/><path d="m1392 2135-128 14c-3 0-6 4-6 8l2 4c1-2 2-3 4-3a1206817 1206817 0 0 0 157-16l-12-6c-5-2-11-2-17-1Z" fill="#a8a8a8"/><path d="M1286 2082h14v79h-14zm80-11h13v79h-13z" fill="#232323"/><path d="M3026 2976h130v56h-130z" fill="#5b5b5b"/><path d="M3026 2976h130v16h-130z" fill="#232323"/><path d="m3156 3088-130-13v-43h130v56z" fill="#3a3a3a"/><path d="M3026 3032h130v9h-130z" fill="#232323"/><path d="M3374 2887c-3 22-52 32-68 36a827 827 0 0 1-101 16c-72 8-145 6-216-2-24-3-162-12-162-50v36c0 38 138 47 162 49a963 963 0 0 0 317-14c16-3 65-13 68-35v-40 4Z" fill="#3a3a3a"/></svg>