<?xml version="1.0" encoding="UTF-8"?>
<svg id="Layer_1" data-name="Layer 1" xmlns="http://www.w3.org/2000/svg" viewBox="0 0 626.24 115.24">
  <defs>
    <style>
      .cls-1 {
        fill: #e9e4e0;
        stroke-width: 0px;
      }
    </style>
  </defs>
  <path class="cls-1" d="M43.36,13.97c11.13,0,19.38,3.1,26.23,9.96l-10.17,12.53c-4.07-4.39-10.17-6.53-16.17-6.53-11.35,0-21.63,7.07-21.63,23.55,0,15.52,10.6,23.55,21.73,23.55,6.1,0,12.31-2.25,16.49-6.74l9.63,11.78c-6.64,7.07-15.63,10.71-26.87,10.71-22.48,0-38.97-15.95-38.97-39.29S20.34,13.97,43.36,13.97Z"/>
  <path class="cls-1" d="M95.28,15.89v75.26h-16.91V15.89h16.91Z"/>
  <path class="cls-1" d="M117.65,7.44c5.25,0,9.96,3.64,9.96,9.53s-4.5,9.53-9.96,9.53c-5.14,0-10.06-3.64-10.06-9.53s4.6-9.53,10.06-9.53ZM126,34.09v57.06h-16.92v-57.06h16.92Z"/>
  <path class="cls-1" d="M156.72,34.09v9.42c5.14-7.39,11.88-10.92,20.45-10.92,9.21,0,15.74,4.07,18.52,13.27,5.35-9.21,12.1-13.27,21.41-13.27,13.06,0,20.98,8.14,20.98,26.12v32.44h-16.92v-31.58c0-8.99-3.1-12.85-8.99-12.85-6.21,0-10.71,4.28-14.77,14.45v29.98h-16.91v-31.58c0-9.31-2.78-12.85-8.46-12.85-6.53,0-11.24,4.6-15.31,14.45v29.98h-16.92v-57.06h16.92Z"/>
  <path class="cls-1" d="M276.51,32.38c8.35,0,14.88,3.1,19.59,9.31v-7.6h16.92v57.06h-16.92v-9.21c-4.71,6.96-11.24,10.6-19.81,10.6-15.63,0-27.94-11.99-27.94-30.3s11.67-29.87,28.16-29.87ZM296.1,62.04c-3-9.74-8.99-15.63-16.27-15.63-8.03,0-13.6,6-13.6,15.95s5.78,16.17,13.38,16.17,13.81-6.53,16.49-16.17v-.32Z"/>
  <path class="cls-1" d="M331.64,46.73h-9.74v-12.63h9.74v-14.77h17.02v14.77h20.77v12.63h-20.77v20.55c0,7.71,3.53,10.92,8.78,10.92,4.5,0,7.71-.75,11.67-2.36l2.36,12.95c-5.35,2.35-11.56,3.64-18.41,3.64-13.38,0-21.41-6.64-21.41-20.66v-25.05Z"/>
  <path class="cls-1" d="M406.04,32.38c16.27,0,29.23,9.31,29.23,30.19,0,2.14-.21,3.75-.43,5.14h-41.32c1.5,7.92,6.96,11.99,16.81,11.99,7.39,0,13.17-1.39,19.59-4.6l2.68,11.78c-7.07,3.85-14.45,6.1-25.37,6.1-20.98,0-31.58-11.67-31.58-30.19s12.31-30.4,30.4-30.4ZM405.72,45.33c-7.28,0-11.35,4.39-12.31,12.74h24.41c-.86-8.35-4.5-12.74-12.1-12.74Z"/>
  <path class="cls-1" d="M456.78,15.89l37.9,51.92,9.31,13.49V15.89h6.32v75.26h-6.32l-38.75-52.99-8.46-12.1v65.09h-6.32V15.89h6.32Z"/>
  <path class="cls-1" d="M553.67,34.09c14.67,0,25.37,10.6,25.37,29.23,0,.64-.11,1.71-.21,2.25h-45.82c.75,13.49,8.89,21.09,22.05,21.09,7.07,0,12.95-1.28,19.38-5.25l1.5,4.92c-5.03,3.64-12.95,5.89-21.09,5.89-17.13,0-28.26-10.92-28.26-28.48s12.1-29.65,27.08-29.65ZM553.56,39.66c-11.35,0-19.27,7.49-20.45,20.77h39.5c-.86-13.38-7.92-20.77-19.06-20.77Z"/>
  <path class="cls-1" d="M595.95,40.52h-10.28v-5.25h10.28v-16.91h6v16.91h21.73v5.25h-21.73v31.47c0,11.03,4.92,14.67,11.99,14.67,3.32,0,7.28-.86,10.71-2.68l1.5,5.03c-3.85,1.93-7.92,3.21-13.38,3.21-9.74,0-16.81-5.57-16.81-19.27v-32.44Z"/>
</svg>